<svg xmlns="http://www.w3.org/2000/svg" viewBox="0 0 1200 630" role="img" aria-label="Vega, AI Data Analyst">
  <defs>
    <linearGradient id="vb" x1="0" y1="0" x2="1" y2="1">
      <stop offset="0" stop-color="#4f46e5"/>
      <stop offset="1" stop-color="#06b6d4"/>
    </linearGradient>
  </defs>
  <rect width="1200" height="630" fill="url(#vb)"/>
  <g transform="translate(815,150)" stroke="#ffffff" fill="none" stroke-width="14" stroke-linecap="round" stroke-linejoin="round">
    <path d="M40 20 V300 H320"/>
    <polyline points="78,262 150,176 222,210 300,70"/>
  </g>
  <g transform="translate(815,150)" fill="#ffffff">
    <circle cx="78" cy="262" r="14"/>
    <circle cx="150" cy="176" r="14"/>
    <circle cx="222" cy="210" r="14"/>
    <circle cx="300" cy="70" r="18"/>
  </g>
  <path transform="translate(815,150)" d="M330 14 l9 26 26 9 -26 9 -9 26 -9 -26 -26 -9 26 -9 z" fill="#fde047"/>
  <text x="96" y="250" font-family="Georgia, 'Times New Roman', serif" font-size="92" font-weight="700" fill="#ffffff">Vega</text>
  <rect x="100" y="282" width="120" height="40" rx="20" fill="rgba(255,255,255,0.18)" stroke="rgba(255,255,255,0.55)"/>
  <text x="160" y="310" text-anchor="middle" font-family="system-ui, sans-serif" font-size="24" font-weight="700" fill="#ffffff" letter-spacing="2">AI</text>
  <text x="236" y="310" font-family="system-ui, sans-serif" font-size="34" fill="rgba(255,255,255,0.9)">Data Analyst</text>
  <text x="98" y="372" font-family="system-ui, sans-serif" font-size="30" font-style="italic" fill="rgba(255,255,255,0.85)">Every dataset is a love letter waiting to be modeled.</text>
</svg>
